<svg width="26" height="26" viewBox="0 0 26 26" fill="none" xmlns="http://www.w3.org/2000/svg">
<path d="M6.61067 23.4746C5.556 24.5293 1.88398 25.4666 1.15864 25.644C1.10531 25.6573 1.05333 25.6626 0.999993 25.6626C0.822659 25.6626 0.650666 25.5919 0.524 25.4626C0.358666 25.2946 0.29599 25.052 0.35599 24.824C0.557324 24.068 1.612 20.24 2.66133 19.1906C3.252 18.6 4.01867 18.296 4.78934 18.304C5.53467 18.3213 6.25066 18.6373 6.80399 19.1906C7.93199 20.32 7.84534 22.2413 6.61067 23.4746ZM19.944 16.6386L19.6 18.7333C19.2 21.2533 17.4667 23.4 15.0933 24.3466L11.92 25.6133C11.84 25.6533 11.7467 25.6666 11.6667 25.6666C11.52 25.6666 11.36 25.6133 11.24 25.5066C11.0533 25.36 10.96 25.1066 11.0133 24.8666L11.8973 20.4186C11.768 20.444 11.6453 20.4786 11.5133 20.5013C11.3507 20.5293 11.1867 20.5426 11.024 20.5426C10.2453 20.5426 9.47998 20.2266 8.90665 19.6546L6.34399 17.0906C5.65065 16.3973 5.33464 15.424 5.49731 14.484C5.51997 14.3546 5.55465 14.2333 5.57865 14.1053L1.15864 14.984C1.11864 14.9973 1.06534 14.9973 1.02534 14.9973C0.825342 14.9973 0.638669 14.9173 0.518669 14.7573C0.358669 14.5706 0.318647 14.304 0.41198 14.0773L1.69201 10.8906C2.62534 8.53063 4.77198 6.7973 7.29198 6.3973L9.35998 6.05196C12.7746 2.13596 18.1373 -0.00402832 24.9973 -0.00402832C25.5493 -0.00402832 25.9973 0.443972 25.9973 0.995972C26 7.86131 23.8613 13.224 19.944 16.6386ZM22.292 9.92664C22.0867 6.57997 19.4186 3.91329 16.072 3.70662C12.2066 5.37196 8.54801 8.60129 7.46801 14.8266C7.41734 15.1213 7.52799 15.4466 7.75866 15.6759L10.3213 18.24C10.5507 18.4693 10.8773 18.5786 11.172 18.5293C17.3987 17.4506 20.628 13.7933 22.292 9.92664ZM15 7.99996C13.3427 7.99996 12 9.34263 12 11C12 12.6573 13.3427 14 15 14C16.6573 14 18 12.6573 18 11C18 9.34263 16.6573 7.99996 15 7.99996Z" fill="url(#paint0_linear_0_2387)"/>
<defs>
<linearGradient id="paint0_linear_0_2387" x1="0.333679" y1="20.424" x2="10.4641" y2="20.424" gradientUnits="userSpaceOnUse">
<stop stop-color="#0CD890"/>
<stop offset="1" stop-color="#01F0FD"/>
</linearGradient>
</defs>
</svg>
