<svg width="375" height="918" viewBox="0 0 375 918" fill="none" xmlns="http://www.w3.org/2000/svg">
<path d="M-321 58.9911C-233.185 168.519 -170.759 194.94 -128.984 181.253C-71.4587 162.405 -66.9312 71.7902 -7.00937 71.7902C34.5365 71.7902 67.2891 174.373 134.192 173.116C209.614 171.701 223.922 45.2552 314.438 6.3901C376.469 -20.2401 446 44.9747 446 44.9747V918H-321L-321 58.9911Z" fill="url(#paint0_linear_0_2987)" fill-opacity="0.3"/>
<path d="M445.5 45.1931V917.5H-320.5L-320.5 60.4123C-276.955 114.551 -239.643 148.257 -207.979 166.759C-176.094 185.391 -149.893 188.63 -128.828 181.728C-114.33 176.978 -103.188 167.709 -93.702 156.521C-85.5051 146.854 -78.5227 135.725 -71.6782 124.817C-70.6077 123.11 -69.5406 121.41 -68.4727 119.721C-52.6394 94.6784 -36.6617 72.2902 -7.00937 72.2902C3.17087 72.2902 12.8842 78.5782 22.8253 88.1591C30.3249 95.387 37.8899 104.423 45.8333 113.91C48.4127 116.991 51.0321 120.119 53.702 123.249C75.4278 148.716 100.485 174.249 134.201 173.616C153.216 173.259 168.365 165.016 181.789 152.296C195.199 139.59 206.917 122.389 219.071 104.073C219.912 102.805 220.756 101.532 221.602 100.255C245.24 64.5748 271.098 25.5432 314.635 6.84954C345.443 -6.37648 378.16 3.18894 403.251 16.1404C415.787 22.611 426.392 29.9133 433.864 35.5989C437.599 38.4413 440.55 40.8786 442.566 42.6044C443.574 43.4673 444.348 44.1522 444.87 44.6208C445.131 44.8551 445.328 45.0353 445.46 45.1567C445.474 45.1695 445.488 45.1816 445.5 45.1931Z" stroke="url(#paint1_linear_0_2987)" stroke-opacity="0.6" style="mix-blend-mode:overlay"/>
<defs>
<linearGradient id="paint0_linear_0_2987" x1="73.6853" y1="19.9452" x2="73.6853" y2="805.368" gradientUnits="userSpaceOnUse">
<stop stop-color="#0BD88F"/>
<stop offset="1" stop-color="#4BDFFF" stop-opacity="0"/>
</linearGradient>
<linearGradient id="paint1_linear_0_2987" x1="73.6854" y1="19.9452" x2="73.6854" y2="496.179" gradientUnits="userSpaceOnUse">
<stop stop-color="white"/>
<stop offset="1" stop-color="white" stop-opacity="0"/>
</linearGradient>
</defs>
</svg>
