<svg width="375" height="610" viewBox="0 0 375 610" fill="none" xmlns="http://www.w3.org/2000/svg">
<path d="M-321 103C-262.51 49.117 -175.704 -9.89947 -72.6845 1.40487C8.1189 10.2724 49.7344 56.966 121.957 89.4433C200.49 124.762 291.135 142.79 446 59.9997V610H-321L-321 103Z" fill="url(#paint0_linear_0_2986)" fill-opacity="0.1"/>
<path d="M-320.5 609.5L-320.5 103.219C-262.039 49.4013 -175.44 -9.36749 -72.739 1.90189C-32.432 6.32527 -1.89523 20.1807 27.6064 37.0048C36.596 42.1313 45.4964 47.5383 54.5507 53.0388C75.1917 65.5782 96.6324 78.6034 121.752 89.8993C161.059 107.577 203.431 120.942 255.368 119.512C307.137 118.087 368.366 101.965 445.5 60.8334V609.5H-320.5Z" stroke="url(#paint1_linear_0_2986)" stroke-opacity="0.6" style="mix-blend-mode:overlay"/>
<defs>
<linearGradient id="paint0_linear_0_2986" x1="74.7507" y1="-0.000366211" x2="74.7507" y2="610" gradientUnits="userSpaceOnUse">
<stop stop-color="#0BD88F"/>
<stop offset="1" stop-color="#0BD88F" stop-opacity="0"/>
</linearGradient>
<linearGradient id="paint1_linear_0_2986" x1="74.7504" y1="-0.000366211" x2="74.7504" y2="492.386" gradientUnits="userSpaceOnUse">
<stop stop-color="white"/>
<stop offset="1" stop-color="white" stop-opacity="0"/>
</linearGradient>
</defs>
</svg>
